<svg width="100" height="32" viewBox="0 0 200 32" fill="none" xmlns="http://www.w3.org/2000/svg">
<g clip-path="url(#clip0_30_134)">
<path d="M30.356 10.2194C29.4703 8.43791 28.1678 6.89675 26.5583 5.72686C24.8729 4.53199 22.9682 3.68177 20.9536 3.22336C18.7326 2.6978 16.4572 2.43751 14.1752 2.44917H4.35651V10.1328H10.9041V8.30527H14.7645C16.0898 8.29917 17.4101 8.47066 18.6893 8.81474C19.8587 9.11832 20.9614 9.63666 21.942 10.3431C22.8677 11.0224 23.6236 11.9071 24.1497 12.9282C24.6953 13.9732 24.9683 15.2014 24.9683 16.6122C24.9683 18.2416 24.6953 19.619 24.1497 20.7445C23.6403 21.8262 22.8683 22.7641 21.9043 23.4722C20.8909 24.1926 19.7405 24.6982 18.5245 24.9584C17.1398 25.2665 15.7241 25.4169 14.3056 25.4069H10.9086V16.8891H4.35596V31.2696H15.0559C17.2037 31.2791 19.3403 30.9633 21.3943 30.3339C23.325 29.7523 25.1326 28.8205 26.7254 27.584C28.2621 26.3786 29.5158 24.8502 30.3971 23.107C31.3028 21.3283 31.7557 19.2716 31.7557 16.9385C31.759 14.3046 31.2923 12.0652 30.3544 10.2194H30.356Z" fill="#05021A"/>
<path d="M39.4016 19.1345C39.4305 18.6478 39.5515 18.1711 39.7585 17.7299C39.9694 17.2781 40.2691 16.8736 40.6398 16.5411C41.0416 16.1876 41.5011 15.9051 41.9984 15.707C42.5867 15.4789 43.2138 15.3685 43.8442 15.3812C44.9914 15.3812 45.9287 15.7475 46.6568 16.4801C47.3672 17.1727 47.749 18.135 47.7063 19.1262L39.4011 19.1345H39.4016ZM54.0081 21.375C54.0247 19.922 53.795 18.4763 53.3288 17.1C52.9186 15.8901 52.2693 14.7757 51.4197 13.8223C50.5822 12.9055 49.5488 12.189 48.3967 11.7261C47.1386 11.2245 45.7939 10.9753 44.4392 10.9925C42.9324 10.9825 41.4345 11.2306 40.0116 11.7261C38.6824 12.1812 37.4553 12.8938 36.4009 13.8223C35.3775 14.7352 34.5556 15.8518 33.9873 17.1C32.8119 19.8288 32.8119 22.9211 33.9873 25.65C34.5556 26.8981 35.3775 28.0147 36.4009 28.9282C37.4559 29.8561 38.683 30.5682 40.0116 31.0238C41.4351 31.5194 42.9324 31.768 44.4392 31.7575C46.088 31.758 47.7185 31.4106 49.2236 30.7385C50.7126 30.1003 52.0229 29.1091 53.0435 27.851L48.6359 24.7176C48.1248 25.4041 47.4915 25.9902 46.7673 26.4469C46.0519 26.8998 45.1773 27.1262 44.1434 27.1262C42.9124 27.1262 41.8774 26.7804 41.0372 26.0884C40.1864 25.3752 39.6075 24.3902 39.4 23.2996H54.0064L54.0081 21.3755V21.375Z" fill="#05021A"/>
<path d="M68.9493 23.9001C68.9631 24.469 68.8255 25.0312 68.5502 25.529C68.2872 25.9874 67.9209 26.3775 67.4802 26.6689C67.0096 26.978 66.494 27.2117 65.9518 27.3621C65.3713 27.5252 64.7714 27.6068 64.1687 27.6046C63.4633 27.604 62.7696 27.422 62.1541 27.0762C61.5381 26.7721 61.1591 26.1339 61.1879 25.4474C61.1574 24.8386 61.4138 24.2509 61.8805 23.8596C62.3761 23.4645 62.9472 23.1753 63.5588 23.0105C64.2297 22.8207 64.9196 22.7064 65.6155 22.6708C66.3287 22.6298 66.9236 22.6098 67.4009 22.6098H68.9531L68.9498 23.9007L68.9493 23.9001ZM74.3214 16.8347C74.085 15.6665 73.5744 14.571 72.8319 13.6386C72.0721 12.7406 71.0865 12.0619 69.9771 11.6718C68.7878 11.2183 67.2699 10.9925 65.4235 10.9925C63.7674 10.9886 62.1225 11.2578 60.5541 11.7872C59.0346 12.2883 57.6344 13.0975 56.4423 14.1653L59.7999 17.504C60.447 16.7892 61.2223 16.202 62.0859 15.7736C62.9688 15.3457 63.9395 15.1293 64.9201 15.1415C65.9474 15.1204 66.9497 15.4589 67.7533 16.0994C68.5458 16.7365 68.942 17.5984 68.942 18.6844C68.0746 18.6844 67.13 18.6978 66.1089 18.725C65.0861 18.7527 64.066 18.8343 63.0515 18.9697C62.0503 19.1007 61.0608 19.311 60.093 19.6002C59.1883 19.8632 58.3309 20.2683 57.5539 20.8006C56.8219 21.3062 56.2181 21.9755 55.7908 22.7552C55.3562 23.5477 55.1392 24.51 55.1403 25.6427C55.1198 26.559 55.3218 27.4669 55.7281 28.2889C56.1099 29.0381 56.6549 29.6924 57.3231 30.203C58.0201 30.7313 58.8098 31.1248 59.6517 31.3629C60.5453 31.6232 61.471 31.753 62.4017 31.7503C63.6587 31.7558 64.9052 31.5205 66.0734 31.0571C67.22 30.6087 68.1967 29.8117 68.8655 28.7778H68.9487V31.2608H74.7404V21.2046C74.7588 19.7372 74.6178 18.2715 74.3209 16.8347H74.3214Z" fill="#05021A"/>
<path d="M108.718 16.2231C108.508 15.2458 108.109 14.319 107.542 13.4954C106.973 12.7018 106.205 12.0708 105.317 11.6646C104.38 11.2117 103.226 10.9853 101.856 10.9853C100.344 10.9853 99.071 11.2566 98.0359 11.8005C97.0009 12.3438 96.1196 13.2551 95.3915 14.5349C94.8925 13.3783 94.0101 12.4299 92.893 11.8477C91.7142 11.2622 90.4111 10.9708 89.0953 10.9986C88.3855 10.9919 87.6784 11.0879 86.9958 11.2838C86.3942 11.4564 85.8159 11.7023 85.2754 12.0175C84.797 12.2961 84.3591 12.6385 83.9745 13.0365C83.6415 13.3739 83.359 13.7579 83.1354 14.1764H83.0505V11.4892H77.0073V31.2757H83.3035V21.4249C83.3013 20.8 83.3435 20.1757 83.429 19.5563C83.5017 18.9919 83.6798 18.4464 83.954 17.948C84.2253 17.4679 84.6244 17.0733 85.1072 16.8081C85.6111 16.5228 86.2688 16.3802 87.0807 16.3802C87.8077 16.3802 88.3599 16.5433 88.7384 16.8691C89.1102 17.1877 89.3922 17.5972 89.557 18.0579C89.7268 18.5296 89.8256 19.0235 89.8511 19.5236C89.8783 20.0397 89.8917 20.4742 89.8917 20.8261V31.2902H96.1879V20.8261C96.1851 20.2511 96.2489 19.6779 96.3782 19.1173C96.4898 18.6045 96.704 18.1195 97.0064 17.6905C97.31 17.2765 97.7146 16.9474 98.1819 16.7343C98.7585 16.489 99.3818 16.3735 100.008 16.3946C101.044 16.3946 101.764 16.7276 102.17 17.3936C102.59 18.1139 102.8 18.9375 102.778 19.7716V31.2935H109.074V19.6085C109.083 18.4697 108.963 17.3336 108.717 16.222L108.718 16.2231Z" fill="#05021A"/>
<path d="M131.697 18.4841C131.044 17.4984 130.172 16.6765 129.149 16.0827C128.116 15.4794 127.008 15.0138 125.854 14.6986C124.679 14.3723 123.58 14.0465 122.559 13.7202C121.658 13.4532 120.799 13.0553 120.011 12.5397C119.34 12.0791 119.004 11.4142 119.004 10.5457C118.989 10.0507 119.136 9.56451 119.424 9.16159C119.711 8.77478 120.085 8.46066 120.516 8.24422C120.967 8.01279 121.447 7.84131 121.943 7.73475C122.425 7.62598 122.918 7.56937 123.412 7.56493C124.292 7.57769 125.164 7.73531 125.994 8.03166C126.836 8.29972 127.585 8.80086 128.154 9.47738L132.646 4.72178C131.414 3.65179 129.966 2.85984 128.4 2.40032C126.818 1.93802 125.178 1.70493 123.531 1.70882C122.094 1.70549 120.665 1.90417 119.284 2.2982C117.976 2.66171 116.745 3.2622 115.653 4.06969C114.609 4.85054 113.75 5.85172 113.136 7.00107C112.506 8.16874 112.19 9.52732 112.19 11.0774C112.19 12.6785 112.533 13.9677 113.22 14.9444C113.895 15.9134 114.776 16.7204 115.801 17.307C116.86 17.9141 117.987 18.392 119.159 18.7322C120.362 19.0857 121.481 19.4381 122.517 19.7905C123.436 20.0863 124.307 20.5186 125.098 21.073C125.767 21.5414 126.153 22.3145 126.126 23.1298C126.137 23.6087 125.998 24.0788 125.727 24.4734C125.453 24.8608 125.095 25.181 124.679 25.4091C124.219 25.6633 123.724 25.8492 123.21 25.9596C121.6 26.3237 119.914 26.1372 118.424 25.4296C117.423 24.9751 116.549 24.2825 115.876 23.4134L111.217 28.381C112.556 29.6041 114.126 30.5454 115.835 31.1498C117.566 31.7314 119.382 32.0183 121.207 31.9989C122.688 32.0061 124.163 31.8152 125.593 31.43C126.91 31.0832 128.15 30.4888 129.245 29.6791C130.294 28.8927 131.149 27.8759 131.743 26.7072C132.358 25.514 132.665 24.116 132.665 22.5138C132.692 20.8344 132.369 19.4919 131.698 18.4852L131.697 18.4841Z" fill="#05021A"/>
<path d="M179.293 5.76125C179.796 5.34002 180.552 5.12913 181.559 5.12913C181.912 5.1258 182.264 5.16021 182.609 5.23069C182.951 5.30894 183.288 5.41161 183.616 5.53648L183.91 0.366321C183.316 0.229241 182.714 0.133785 182.107 0.0810627C181.491 0.026675 180.86 -0.000518799 180.216 -0.000518799C178.509 -0.000518799 177.131 0.209817 176.082 0.631044C175.033 1.05227 174.229 1.62889 173.668 2.36035C173.1 3.11123 172.713 3.9831 172.536 4.90769C172.335 5.91941 172.237 6.94889 172.241 7.98004V11.4825H168.083V16.3674H172.24V31.2691H178.535V16.3674H183.194V11.4825H178.529V8.34577C178.529 7.0438 178.783 6.18192 179.293 5.76069L179.293 5.76125Z" fill="#05021A"/>
<path d="M199.814 16.3663V11.4814H194.272V5.61862H187.977V11.4814H183.947V16.3663H187.977V25.7687C187.977 26.8548 188.166 27.7777 188.543 28.5375C188.903 29.2773 189.445 29.9138 190.117 30.3889C190.827 30.8823 191.625 31.2347 192.467 31.4283C193.43 31.6537 194.417 31.763 195.405 31.7541C196.148 31.7536 196.892 31.7125 197.63 31.632C198.374 31.5527 199.107 31.3889 199.813 31.1431V26.0479C199.456 26.3226 199.024 26.4852 198.575 26.5151C198.136 26.5751 197.694 26.6089 197.252 26.6167C196.701 26.6389 196.151 26.5484 195.636 26.3514C195.263 26.2038 194.946 25.9402 194.733 25.5989C194.527 25.2426 194.399 24.8474 194.355 24.439C194.297 23.9456 194.268 23.4495 194.27 22.9528V16.3563L199.812 16.3663H199.814Z" fill="#05021A"/>
<path d="M0 10.1261H6.76128V16.8874H0V10.1261Z" fill="#068FFF"/>
<path d="M156.292 11.2688C151.058 11.2677 146.813 15.5105 146.813 20.7445C146.812 25.9785 151.054 30.2224 156.289 30.2235C161.523 30.224 165.766 25.9818 165.768 20.7478V20.7462C165.763 15.515 161.524 11.2749 156.292 11.2688ZM156.292 31.9994C150.075 31.9994 145.036 26.9602 145.036 20.7439C145.036 14.5276 150.076 9.48846 156.292 9.48846C162.508 9.48846 167.547 14.5276 167.547 20.7439V20.7456C167.54 26.9586 162.505 31.9928 156.292 31.9994Z" fill="#08FFF2"/>
<path d="M148.905 11.0652C143.672 11.0663 139.431 15.3091 139.432 20.5425C139.433 25.7754 143.676 30.017 148.909 30.0159C154.141 30.0148 158.382 25.7731 158.382 20.5403C158.377 15.3091 154.137 11.0696 148.905 11.0646V11.0652ZM148.905 31.7957C142.689 31.7957 137.65 26.7566 137.65 20.5403C137.65 14.324 142.689 9.28479 148.905 9.28479C155.121 9.28479 160.161 14.324 160.161 20.5403C160.154 26.7538 155.119 31.7891 148.905 31.7957Z" fill="#068FFF"/>
<path d="M145.378 3.49029C140.144 3.49029 135.9 7.73309 135.9 12.9676C135.9 18.2016 140.144 22.445 145.378 22.445C150.612 22.445 154.855 18.2022 154.855 12.9676V12.966C154.848 7.73475 150.609 3.49584 145.378 3.49029ZM145.378 24.2209C139.162 24.2209 134.122 19.1817 134.122 12.9654C134.122 6.74911 139.162 1.70993 145.378 1.70993C151.594 1.70993 156.633 6.74911 156.633 12.9654C156.627 19.1789 151.591 24.2142 145.378 24.2209Z" fill="#08FFF2"/>
</g>
<defs>
<clipPath id="clip0_30_134">
<rect width="199.814" height="32" fill="white"/>
</clipPath>
</defs>
</svg>
